<svg version="1.2" xmlns="http://www.w3.org/2000/svg" viewBox="0 0 1072 100" width="170" height="16">
	<title>ICM-Global-Logo-svg</title>
	<style>
		.s0 { fill: #34e834 } 
		.s1 { fill: #191919 } 
	</style>
	<g id="Layer_1-2">
		<path id="Layer" class="s0" d="m117.9 5v91h-20v-91z"/>
		<path id="Layer" class="s0" d="m210 61.5c-2 22.2-15.8 37.3-40.6 37.3-26.4 0-43.8-19-43.8-47.8 0-26.5 16.8-47.6 44.6-47.6 21.8 0 37.7 13.8 39.2 32.6h-19.5c-2-10-9.4-15.9-20.1-15.9-17.4 0-24.2 15.7-24.2 30.9 0 18.8 9.3 30.8 23.9 30.8 12 0 19.1-7.2 20.8-20.5h19.7z"/>
		<path id="Layer" class="s1" d="m228.5 95.7v-91h28.4l21.1 62.5 20.6-62.5h27.8v91h-18.7v-64.7l-22.3 64.7h-15.4l-22.5-64v64z"/>
		<path id="Layer" fill-rule="evenodd" class="s1" d="m378.3 96v-6.4c-5.6 5.6-13.4 8.3-21.3 8.3-14.5 0-23.4-7.5-23.4-19.9 0-16.3 13.9-19 26.3-20.7l2.8-0.4c11.4-1.5 15.6-2.6 15.6-7.9 0-6-3.5-8.8-11.8-8.8-8.3 0-11.7 2.6-13 10.1h-16.9c1-14.7 11.4-22.2 30.4-22.2h0.4c13.2 0.1 28.3 3.3 28.3 21.5v46.4zm-12.7-28.6c-6.2 1-13.2 1.7-13.2 9.8 0 5.5 3.7 8.8 9.9 8.8 9.4 0 16-5.2 16-14.7v-7.4c-4.2 2.4-8.2 2.7-12.7 3.5z"/>
		<path id="Layer" class="s1" d="m419.8 96v-41.2c0-4.3 3.4-7.7 7.7-7.7h16.7v-17.8h-16.7c-14 0-25.4 11.4-25.4 25.5v41.2z"/>
		<path id="Layer" class="s1" d="m595.5 4.7v24.6h20v17.8h-20v23.3c0 4.3 3.4 7.7 7.7 7.7h12.3v17.8h-12.3c-14 0-25.4-11.4-25.4-25.5v-65.7z"/>
		<path id="Layer" class="s1" d="m510.4 29.7l-24.7 24.4 27.6 41.5h-21.9l-18.1-29.3-7.4 6.9v22.4h-17.7v-91h17.8v48.7l23.2-23.7h21.2z"/>
		<path id="Layer" fill-rule="evenodd" class="s1" d="m540.8 97.6c-20.2 0-33.6-14-33.6-34.5 0-20.5 13.1-35.3 33-35.3 19.9 0 32.5 14.6 32.5 37.7v1.8h-47.1c0.2 11.4 5.7 17.5 15.4 17.5 6.7 0 10.7-3 13.4-9.6h17.3c-4.1 14.3-15.9 22.4-30.9 22.4zm-0.7-56.6c-8 0-13.6 5.6-14.6 14.8h28.8c-0.7-8.1-5-14.9-14.2-14.8z"/>
		<path id="Layer" class="s1" d="m677.8 48.9h-16.8c-1-6.9-5.2-9.1-12.5-9.1-6.4 0-10.2 2.4-10.2 6.5 0 4.7 4.2 6 12 7.6l6.1 1.3c11.3 2.4 23.4 5.9 23.4 20 0 14.1-11.3 22.4-30.1 22.4-16.4 0-30.6-6.5-30.8-23.4h17.2c0.6 7.9 5.7 11 14 11 7.4 0 12-3.2 12-8.2 0-5.4-5-6.6-13.9-8.6l-1.6-0.4c-11.6-2.6-26.3-4.6-26.3-20 0-12.9 10.4-20.2 28.8-20.2 15.2 0 28.2 5.7 28.7 21.1z"/>
		<path id="Layer" class="s1" d="m27 66.4v30h-20v-30z"/>
		<path id="Layer" class="s1" d="m57 31.4v65h-20v-65z"/>
		<path id="Layer" class="s1" d="m86.9 51.4v45h-20v-45z"/>
		<path id="Layer" class="s0" d="m774.7 86.6c-7.3 9.4-16.9 13-26.1 13-29.4 0-46.7-22-46.7-49.4 0-27.4 17.3-50.2 46.7-50.2 19.5 0 37.9 12 40.1 33.6h-20c-2.4-10.6-10.2-16-20.1-16-18.7 0-25.8 16-25.8 32.6 0 16.7 7.1 31.8 25.8 31.8 13.6 0 21.5-7.3 22.7-20.5h-21.1v-15.5h40v51.4h-13.3z"/>
		<path id="Layer" class="s0" d="m799 2.3h18.9v95l-18.9 0.1z"/>
		<path id="Layer" fill-rule="evenodd" class="s0" d="m859.6 26.6c21.7 0 35.7 14.4 35.7 36.4 0 22-14 36.2-35.7 36.2-21.7 0-35.6-14.4-35.6-36.2 0-21.8 14-36.4 35.6-36.4zm0 58.4c12.9 0 16.8-11.1 16.8-22-0.1-10.9-3.9-22.1-16.8-22.1-12.9 0-16.7 11-16.7 22.1 0 11.1 3.9 22 16.7 22z"/>
		<path id="Layer" fill-rule="evenodd" class="s0" d="m900.9 2.3h18.9v34.6h0.2c4.7-7.1 13.2-10.3 21.8-10.3 13.7 0 28.5 11.1 28.5 36.3 0 25.1-14.8 36.3-28.5 36.3-10.2 0-18.6-3-22.7-10.6h-0.3v8.8h-17.9zm34.3 38.6c-11.2 0-16.1 10.5-16.1 22.1 0 11.6 4.9 22 16.1 22 11.2 0 16.1-10.6 16.1-22 0-11.5-4.9-22.1-16.1-22.1z"/>
		<path id="Layer" fill-rule="evenodd" class="s0" d="m974.8 49.7c1-17.7 16.9-23.1 32.3-23.1 13.8 0 30.3 3.1 30.3 19.6v35.8c0 6.3 0.6 12.6 2.4 15.4h-19.2c-0.7-2.2-1.2-4.4-1.3-6.7-6 6.3-14.8 8.5-23.2 8.5-13.1 0-23.5-6.5-23.5-20.6 0-15.6 11.8-19.3 23.5-20.9 11.6-1.7 22.4-1.3 22.4-9.1 0-8.1-5.6-9.3-12.3-9.3-7.2 0-11.8 2.9-12.5 10.4zm43.7 14c-3.2 2.8-9.9 2.9-15.8 4-5.8 1.2-11.2 3.2-11.2 10.1 0 6.9 5.5 8.8 11.6 8.8 14.8 0 15.4-11.7 15.4-15.9z"/>
		<path id="Layer" class="s0" d="m1045.9 2.3h18.9v95l-18.9 0.1z"/>
	</g>
</svg>